<?xml version="1.0" encoding="UTF-8" standalone="no"?>
<!-- Created with Inkscape (http://www.inkscape.org/) -->

<svg
   width="400mm"
   height="500mm"
   viewBox="0 0 400 500"
   version="1.1"
   id="svg5"
   xml:space="preserve"
   inkscape:export-filename="plan.svg"
   inkscape:export-xdpi="96"
   inkscape:export-ydpi="96"
   sodipodi:docname="plan.svg"
   inkscape:version="1.2.2 (b0a8486541, 2022-12-01)"
   xmlns:inkscape="http://www.inkscape.org/namespaces/inkscape"
   xmlns:sodipodi="http://sodipodi.sourceforge.net/DTD/sodipodi-0.dtd"
   xmlns="http://www.w3.org/2000/svg"
   xmlns:svg="http://www.w3.org/2000/svg"><sodipodi:namedview
     id="namedview7"
     pagecolor="#505050"
     bordercolor="#eeeeee"
     borderopacity="1"
     inkscape:showpageshadow="0"
     inkscape:pageopacity="0"
     inkscape:pagecheckerboard="0"
     inkscape:deskcolor="#505050"
     inkscape:document-units="mm"
     showgrid="true"
     inkscape:zoom="0.31655403"
     inkscape:cx="723.41521"
     inkscape:cy="739.21031"
     inkscape:window-width="1920"
     inkscape:window-height="1024"
     inkscape:window-x="0"
     inkscape:window-y="32"
     inkscape:window-maximized="1"
     inkscape:current-layer="layer1"><inkscape:grid
       type="xygrid"
       id="grid1412"
       originx="0"
       originy="0" /></sodipodi:namedview><defs
     id="defs2" /><g
     inkscape:label="Calque 1"
     inkscape:groupmode="layer"
     id="layer1"><path
       id="rect6391"
       style="fill:#ff6600;stroke-width:0.264583"
       d="M 0 0 L 0 3.96875 L 0 456.40625 L 3.96875 456.40625 L 149.48958 456.40625 L 149.48958 452.4375 L 149.48958 209.02083 L 173.30208 209.02083 L 173.30208 207.69792 L 173.30208 174.625 L 149.48958 174.625 L 149.48958 3.96875 L 149.48958 0 L 3.96875 0 L 0 0 z M 3.96875 3.96875 L 62.177083 3.96875 L 62.177083 50.270833 L 3.96875 50.270833 L 3.96875 3.96875 z M 63.5 3.96875 L 82.020833 3.96875 L 82.020833 50.270833 L 63.5 50.270833 L 63.5 3.96875 z M 83.34375 3.96875 L 120.38542 3.96875 L 120.38542 50.270833 L 104.51042 50.270833 L 83.34375 50.270833 L 83.34375 3.96875 z M 121.70833 3.96875 L 145.52083 3.96875 L 145.52083 50.270833 L 121.70833 50.270833 L 121.70833 3.96875 z M 3.96875 54.239583 L 62.177083 54.239583 L 62.177083 67.46875 L 48.947917 67.46875 L 47.625 67.46875 L 47.625 84.666667 L 3.96875 84.666667 L 3.96875 54.239583 z M 63.5 54.239583 L 85.989583 54.239583 L 85.989583 74.083333 L 63.5 74.083333 L 63.5 67.46875 L 63.5 54.239583 z M 87.3125 54.239583 L 104.51042 54.239583 L 145.52083 54.239583 L 145.52083 83.34375 L 87.3125 83.34375 L 87.3125 76.729167 L 87.3125 54.239583 z M 48.947917 68.791667 L 62.177083 68.791667 L 62.177083 78.052083 L 63.5 78.052083 L 63.5 75.40625 L 85.989583 75.40625 L 85.989583 80.697917 L 85.989583 127 L 85.989583 146.84375 L 85.989583 156.10417 L 85.989583 157.42708 L 85.989583 173.30208 L 64.822917 173.30208 L 64.822917 156.10417 L 64.822917 146.84375 L 64.822917 127 L 64.822917 84.666667 L 48.947917 84.666667 L 48.947917 68.791667 z M 87.3125 84.666667 L 145.52083 84.666667 L 145.52083 116.41667 L 137.58333 116.41667 L 112.44792 116.41667 L 112.44792 112.44792 L 108.47917 112.44792 L 108.47917 116.41667 L 87.3125 116.41667 L 87.3125 84.666667 z M 3.96875 85.989583 L 63.5 85.989583 L 63.5 116.41667 L 41.010417 116.41667 L 41.010417 112.44792 L 37.041667 112.44792 L 37.041667 116.41667 L 3.96875 116.41667 L 3.96875 85.989583 z M 3.96875 117.73958 L 63.5 117.73958 L 63.5 127 L 63.5 144.19792 L 3.96875 144.19792 L 3.96875 117.73958 z M 87.3125 117.73958 L 137.58333 117.73958 L 145.52083 117.73958 L 145.52083 144.19792 L 87.3125 144.19792 L 87.3125 127 L 87.3125 117.73958 z M 3.96875 145.52083 L 63.5 145.52083 L 63.5 146.84375 L 63.5 157.42708 L 63.5 173.30208 L 3.96875 173.30208 L 3.96875 145.52083 z M 87.3125 145.52083 L 145.52083 145.52083 L 145.52083 173.30208 L 87.3125 173.30208 L 87.3125 157.42708 L 87.3125 156.10417 L 87.3125 146.84375 L 87.3125 145.52083 z M 149.48958 175.94792 L 171.97917 175.94792 L 171.97917 207.69792 L 149.48958 207.69792 L 149.48958 175.94792 z M 3.96875 177.27083 L 51.59375 177.27083 L 51.59375 206.375 L 3.96875 206.375 L 3.96875 177.27083 z M 52.916667 177.27083 L 130.96875 177.27083 L 130.96875 206.375 L 96.572917 206.375 L 52.916667 206.375 L 52.916667 177.27083 z M 132.29167 177.27083 L 145.52083 177.27083 L 145.52083 239.44792 L 112.44792 239.44792 L 112.44792 231.51042 L 116.41667 231.51042 L 116.41667 230.1875 L 116.41667 219.60417 L 129.64583 219.60417 L 129.64583 222.25 L 130.96875 222.25 L 130.96875 207.69792 L 132.29167 207.69792 L 132.29167 177.27083 z M 3.96875 207.69792 L 27.78125 207.69792 L 27.78125 212.98958 L 33.072917 212.98958 L 33.072917 210.34375 L 60.854167 210.34375 L 60.854167 329.40625 L 31.75 329.40625 L 31.75 328.08333 L 3.96875 328.08333 L 3.96875 209.02083 L 3.96875 207.69792 z M 62.177083 210.34375 L 83.34375 210.34375 L 83.34375 231.51042 L 84.666667 231.51042 L 84.666667 248.70833 L 76.729167 248.70833 L 75.40625 248.70833 L 75.40625 250.03125 L 75.40625 252.67708 L 62.177083 252.67708 L 62.177083 210.34375 z M 84.666667 210.34375 L 99.21875 210.34375 L 99.21875 230.1875 L 84.666667 230.1875 L 84.666667 210.34375 z M 100.54167 210.34375 L 115.09375 210.34375 L 115.09375 218.28125 L 115.09375 219.60417 L 115.09375 230.1875 L 112.44792 230.1875 L 111.125 230.1875 L 111.125 239.44792 L 100.54167 239.44792 L 100.54167 210.34375 z M 116.41667 210.34375 L 129.64583 210.34375 L 129.64583 218.28125 L 116.41667 218.28125 L 116.41667 210.34375 z M 85.989583 231.51042 L 99.21875 231.51042 L 99.21875 240.77083 L 100.54167 240.77083 L 111.125 240.77083 L 111.125 254 L 101.86458 254 L 101.86458 248.70833 L 85.989583 248.70833 L 85.989583 231.51042 z M 112.44792 240.77083 L 128.32292 240.77083 L 128.32292 254 L 112.44792 254 L 112.44792 240.77083 z M 129.64583 240.77083 L 145.52083 240.77083 L 145.52083 254 L 129.64583 254 L 129.64583 240.77083 z M 76.729167 250.03125 L 100.54167 250.03125 L 100.54167 268.55208 L 76.729167 268.55208 L 76.729167 250.03125 z M 62.177083 254 L 75.40625 254 L 75.40625 268.55208 L 62.177083 268.55208 L 62.177083 254 z M 101.86458 255.32292 L 145.52083 255.32292 L 145.52083 268.55208 L 116.41667 268.55208 L 116.41667 272.52083 L 116.41667 329.40625 L 82.020833 329.40625 L 82.020833 316.17708 L 103.1875 316.17708 L 103.1875 314.85417 L 103.1875 268.55208 L 101.86458 268.55208 L 101.86458 255.32292 z M 62.177083 272.52083 L 80.697917 272.52083 L 80.697917 329.40625 L 62.177083 329.40625 L 62.177083 272.52083 z M 82.020833 272.52083 L 101.86458 272.52083 L 101.86458 314.85417 L 82.020833 314.85417 L 82.020833 272.52083 z M 117.73958 272.52083 L 145.52083 272.52083 L 145.52083 329.40625 L 117.73958 329.40625 L 117.73958 272.52083 z M 3.96875 329.40625 L 27.78125 329.40625 L 27.78125 333.375 L 96.572917 333.375 L 96.572917 394.22917 L 96.572917 395.55208 L 97.895833 395.55208 L 97.895833 410.10417 L 29.104167 410.10417 L 29.104167 395.55208 L 84.666667 395.55208 L 84.666667 391.58333 L 84.666667 362.47917 L 3.96875 362.47917 L 3.96875 329.40625 z M 97.895833 333.375 L 145.52083 333.375 L 145.52083 362.47917 L 97.895833 362.47917 L 97.895833 333.375 z M 3.96875 363.80208 L 60.854167 363.80208 L 60.854167 391.58333 L 29.104167 391.58333 L 27.78125 391.58333 L 27.78125 410.10417 L 3.96875 410.10417 L 3.96875 363.80208 z M 62.177083 363.80208 L 83.34375 363.80208 L 83.34375 391.58333 L 62.177083 391.58333 L 62.177083 363.80208 z M 97.895833 363.80208 L 145.52083 363.80208 L 145.52083 391.58333 L 97.895833 391.58333 L 97.895833 363.80208 z M 99.21875 395.55208 L 145.52083 395.55208 L 145.52083 425.97917 L 99.21875 425.97917 L 99.21875 395.55208 z M 3.96875 411.42708 L 39.6875 411.42708 L 39.6875 449.79167 L 31.75 449.79167 L 31.75 452.4375 L 3.96875 452.4375 L 3.96875 411.42708 z M 41.010417 411.42708 L 85.989583 411.42708 L 85.989583 452.4375 L 41.010417 452.4375 L 41.010417 449.79167 L 41.010417 411.42708 z M 87.3125 411.42708 L 97.895833 411.42708 L 97.895833 427.30208 L 99.21875 427.30208 L 145.52083 427.30208 L 145.52083 452.4375 L 91.28125 452.4375 L 91.28125 449.79167 L 87.3125 449.79167 L 87.3125 411.42708 z M 7.9375 469.63542 L 7.9375 470.95833 L 7.9375 488.15625 L 7.9375 489.47917 L 26.458333 489.47917 L 26.458333 488.15625 L 26.458333 469.63542 L 7.9375 469.63542 z M 9.2604167 470.95833 L 25.135417 470.95833 L 25.135417 488.15625 L 9.2604167 488.15625 L 9.2604167 470.95833 z " /><path
       id="rect6391-6"
       style="fill:#ff6600;stroke-width:0.264583"
       d="M 205.05208 0 L 205.05208 3.96875 L 205.05208 456.40625 L 209.02083 456.40625 L 212.98958 456.40625 L 212.98958 488.15625 L 214.3125 488.15625 L 230.1875 488.15625 L 231.51042 488.15625 L 231.51042 470.95833 L 242.09375 470.95833 L 242.09375 469.63542 L 242.09375 456.40625 L 354.54167 456.40625 L 354.54167 452.4375 L 354.54167 0 L 209.02083 0 L 205.05208 0 z M 209.02083 3.96875 L 250.03125 3.96875 L 250.03125 35.71875 L 209.02083 35.71875 L 209.02083 3.96875 z M 251.35417 3.96875 L 289.71875 3.96875 L 289.71875 35.71875 L 251.35417 35.71875 L 251.35417 3.96875 z M 291.04167 3.96875 L 350.57292 3.96875 L 350.57292 30.427083 L 291.04167 30.427083 L 291.04167 3.96875 z M 291.04167 31.75 L 350.57292 31.75 L 350.57292 50.270833 L 291.04167 50.270833 L 291.04167 31.75 z M 209.02083 37.041667 L 289.71875 37.041667 L 289.71875 50.270833 L 234.15625 50.270833 L 209.02083 50.270833 L 209.02083 37.041667 z M 209.02083 51.59375 L 231.51042 51.59375 L 231.51042 54.239583 L 231.51042 111.125 L 231.51042 115.09375 L 231.51042 177.27083 L 232.83333 177.27083 L 255.32292 177.27083 L 255.32292 206.375 L 231.51042 206.375 L 231.51042 210.34375 L 231.51042 329.40625 L 231.51042 333.375 L 231.51042 336.02083 L 231.51042 410.10417 L 231.51042 411.42708 L 235.47917 411.42708 L 235.47917 449.79167 L 232.83333 449.79167 L 232.83333 452.4375 L 209.02083 452.4375 L 209.02083 51.59375 z M 232.83333 54.239583 L 350.57292 54.239583 L 350.57292 111.125 L 232.83333 111.125 L 232.83333 54.239583 z M 232.83333 115.09375 L 293.6875 115.09375 L 293.6875 173.30208 L 232.83333 173.30208 L 232.83333 115.09375 z M 295.01042 115.09375 L 350.57292 115.09375 L 350.57292 144.19792 L 330.72917 144.19792 L 330.72917 138.90625 L 309.5625 138.90625 L 308.23958 138.90625 L 308.23958 140.22917 L 308.23958 144.19792 L 295.01042 144.19792 L 295.01042 115.09375 z M 309.5625 140.22917 L 329.40625 140.22917 L 329.40625 145.52083 L 330.72917 145.52083 L 350.57292 145.52083 L 350.57292 157.42708 L 309.5625 157.42708 L 309.5625 140.22917 z M 295.01042 145.52083 L 308.23958 145.52083 L 308.23958 173.30208 L 295.01042 173.30208 L 295.01042 145.52083 z M 309.5625 158.75 L 329.40625 158.75 L 329.40625 173.30208 L 309.5625 173.30208 L 309.5625 158.75 z M 330.72917 158.75 L 339.98958 158.75 L 339.98958 173.30208 L 330.72917 173.30208 L 330.72917 158.75 z M 341.3125 158.75 L 350.57292 158.75 L 350.57292 173.30208 L 341.3125 173.30208 L 341.3125 158.75 z M 256.64583 177.27083 L 350.57292 177.27083 L 350.57292 206.375 L 256.64583 206.375 L 256.64583 177.27083 z M 232.83333 210.34375 L 289.71875 210.34375 L 289.71875 267.22917 L 289.71875 268.55208 L 232.83333 268.55208 L 232.83333 210.34375 z M 291.04167 210.34375 L 350.57292 210.34375 L 350.57292 268.55208 L 291.04167 268.55208 L 291.04167 263.26042 L 291.04167 210.34375 z M 232.83333 272.52083 L 350.57292 272.52083 L 350.57292 329.40625 L 235.47917 329.40625 L 235.47917 328.08333 L 232.83333 328.08333 L 232.83333 272.52083 z M 235.47917 333.375 L 350.57292 333.375 L 350.57292 391.58333 L 232.83333 391.58333 L 232.83333 336.02083 L 235.47917 336.02083 L 235.47917 333.375 z M 232.83333 395.55208 L 350.57292 395.55208 L 350.57292 452.4375 L 242.09375 452.4375 L 242.09375 449.79167 L 236.80208 449.79167 L 236.80208 410.10417 L 232.83333 410.10417 L 232.83333 395.55208 z M 214.3125 456.40625 L 240.77083 456.40625 L 240.77083 469.63542 L 231.51042 469.63542 L 214.3125 469.63542 L 214.3125 456.40625 z M 214.3125 470.95833 L 230.1875 470.95833 L 230.1875 486.83333 L 214.3125 486.83333 L 214.3125 470.95833 z " /></g></svg>
