<?xml version="1.0" encoding="UTF-8" standalone="no"?>
<!-- Created with Inkscape (http://www.inkscape.org/) -->

<svg
   width="400mm"
   height="500mm"
   viewBox="0 0 400 500"
   version="1.1"
   id="svg5"
   xml:space="preserve"
   inkscape:export-filename="plan.svg"
   inkscape:export-xdpi="96"
   inkscape:export-ydpi="96"
   sodipodi:docname="plan_not_merged.svg"
   inkscape:version="1.2.2 (b0a8486541, 2022-12-01)"
   xmlns:inkscape="http://www.inkscape.org/namespaces/inkscape"
   xmlns:sodipodi="http://sodipodi.sourceforge.net/DTD/sodipodi-0.dtd"
   xmlns="http://www.w3.org/2000/svg"
   xmlns:svg="http://www.w3.org/2000/svg"><sodipodi:namedview
     id="namedview7"
     pagecolor="#505050"
     bordercolor="#eeeeee"
     borderopacity="1"
     inkscape:showpageshadow="0"
     inkscape:pageopacity="0"
     inkscape:pagecheckerboard="0"
     inkscape:deskcolor="#505050"
     inkscape:document-units="mm"
     showgrid="true"
     inkscape:zoom="5.0648644"
     inkscape:cx="1066.9585"
     inkscape:cy="128.13768"
     inkscape:window-width="1920"
     inkscape:window-height="1024"
     inkscape:window-x="0"
     inkscape:window-y="32"
     inkscape:window-maximized="1"
     inkscape:current-layer="layer1"><inkscape:grid
       type="xygrid"
       id="grid1412"
       originx="0"
       originy="0" /></sodipodi:namedview><defs
     id="defs2" /><g
     inkscape:label="Calque 1"
     inkscape:groupmode="layer"
     id="layer1"><path
       id="rect6391"
       style="fill:#ff6600;stroke-width:0.264583"
       d="M 0 0 L 0 3.96875 L 0 452.4375 L 0 456.40625 L 3.96875 456.40625 L 149.48958 456.40625 L 149.48958 452.4375 L 149.48958 3.96875 L 149.48958 0 L 3.96875 0 L 0 0 z M 3.96875 3.96875 L 145.52083 3.96875 L 145.52083 452.4375 L 3.96875 452.4375 L 3.96875 3.96875 z " /><path
       id="rect6391-6"
       style="fill:#ff6600;stroke-width:0.264583"
       d="M 205.05208 0 L 205.05208 3.96875 L 205.05208 452.4375 L 205.05208 456.40625 L 209.02083 456.40625 L 350.57292 456.40625 L 354.54167 456.40625 L 354.54167 452.4375 L 354.54167 0 L 209.02083 0 L 205.05208 0 z M 209.02083 3.96875 L 350.57292 3.96875 L 350.57292 452.4375 L 209.02083 452.4375 L 209.02083 3.96875 z " /><rect
       style="fill:#ff6600;stroke-width:0.244956"
       id="rect10054"
       width="7.9375"
       height="2.6458333"
       x="31.75"
       y="449.79166" /><rect
       style="fill:#ff6600;stroke-width:0.273554"
       id="rect10056"
       width="1.3229166"
       height="41.010426"
       x="39.6875"
       y="411.42706" /><rect
       style="fill:#ff6600;stroke-width:0.262739"
       id="rect10058"
       width="93.927086"
       height="1.3229166"
       x="3.96875"
       y="410.10416" /><rect
       style="fill:#ff6600;stroke-width:0.264583"
       id="rect10060"
       width="1.3229166"
       height="41.010418"
       x="85.989586"
       y="411.42706" /><rect
       style="fill:#ff6600;stroke-width:0.264583"
       id="rect10062"
       width="3.96875"
       height="2.6458333"
       x="87.3125"
       y="449.79166" /><path
       id="rect10064"
       style="fill:#ff6600;stroke-width:0.264583"
       d="M 7.9375 469.63542 L 7.9375 470.95833 L 7.9375 488.15625 L 7.9375 489.47917 L 26.458333 489.47917 L 26.458333 488.15625 L 26.458333 469.63542 L 9.2604167 469.63542 L 7.9375 469.63542 z M 9.2604167 470.95833 L 25.135417 470.95833 L 25.135417 488.15625 L 9.2604167 488.15625 L 9.2604167 470.95833 z " /><rect
       style="fill:#ff6600;stroke-width:0.234528"
       id="rect10072"
       width="1.3229166"
       height="14.552094"
       x="27.78125"
       y="395.55209" /><rect
       style="fill:#ff6600;stroke-width:0.267714"
       id="rect10074"
       width="56.885418"
       height="3.96875"
       x="27.78125"
       y="391.58334" /><rect
       style="fill:#ff6600;stroke-width:0.2585"
       id="rect10076"
       width="1.3229166"
       height="27.781239"
       x="83.34375"
       y="363.80209" /><rect
       style="fill:#ff6600;stroke-width:0.2585"
       id="rect10078"
       width="1.3229166"
       height="27.781239"
       x="60.854164"
       y="363.80209" /><rect
       style="fill:#ff6600;stroke-width:0.264583"
       id="rect10080"
       width="80.697914"
       height="1.3229166"
       x="3.96875"
       y="362.47916" /><rect
       style="fill:#ff6600;stroke-width:0.264583"
       id="rect10082"
       width="1.3229166"
       height="31.75"
       x="97.895836"
       y="395.55209" /><rect
       style="fill:#ff6600;stroke-width:0.264583"
       id="rect10084"
       width="46.302082"
       height="1.3229166"
       x="99.21875"
       y="425.97916" /><rect
       style="fill:#ff6600;stroke-width:0.25771"
       id="rect10086"
       width="48.947918"
       height="3.96875"
       x="96.572914"
       y="391.58334" /><rect
       style="fill:#ff6600;stroke-width:0.258892"
       id="rect10088"
       width="1.3229192"
       height="59.531261"
       x="96.572914"
       y="332.05209" /><rect
       style="fill:#ff6600;stroke-width:0.264583"
       id="rect10090"
       width="47.625"
       height="1.3229166"
       x="97.895836"
       y="362.47916" /><rect
       style="fill:#ff6600;stroke-width:0.263109"
       id="rect10092"
       width="117.73959"
       height="3.96875"
       x="27.78125"
       y="329.40625" /><rect
       style="fill:#ff6600;stroke-width:0.264583"
       id="rect10094"
       width="27.78125"
       height="1.3229166"
       x="3.96875"
       y="328.08334" /><rect
       style="fill:#ff6600;stroke-width:0.260281"
       id="rect10096"
       width="1.3229154"
       height="119.0625"
       x="60.854168"
       y="210.34375" /><rect
       style="fill:#ff6600;stroke-width:0.264583"
       id="rect10098"
       width="1.3229166"
       height="1.3229166"
       x="2.6458333"
       y="207.69791" /><rect
       style="fill:#ff6600;stroke-width:0.13322"
       id="rect10100"
       width="23.8125"
       height="1.3229166"
       x="3.96875"
       y="206.375" /><rect
       style="fill:#ff6600;stroke-width:0.187088"
       id="rect10102"
       width="5.2916665"
       height="2.645823"
       x="27.78125"
       y="210.34375" /><path
       id="rect10104"
       style="fill:#ff6600;stroke-width:0.336514"
       d="M 27.78125 206.375 L 27.78125 210.34375 L 93.927083 210.34375 L 100.54167 210.34375 L 130.96875 210.34375 L 130.96875 206.375 L 100.54167 206.375 L 93.927083 206.375 L 27.78125 206.375 z " /><rect
       style="fill:#ff6600;stroke-width:0.264583"
       id="rect10108"
       width="41.010418"
       height="3.96875"
       x="62.177082"
       y="268.55209" /><rect
       style="fill:#ff6600;stroke-width:0.258767"
       id="rect10110"
       width="29.104177"
       height="3.96875"
       x="116.41666"
       y="268.55209" /><rect
       style="fill:#ff6600;stroke-width:0.264583"
       id="rect10112"
       width="1.3229166"
       height="56.885414"
       x="116.41666"
       y="272.52084" /><rect
       style="fill:#ff6600;stroke-width:0.264583"
       id="rect10114"
       width="1.3229166"
       height="56.885414"
       x="80.697914"
       y="272.52084" /><rect
       style="fill:#ff6600;stroke-width:0.264583"
       id="rect10116"
       width="21.166666"
       height="1.3229166"
       x="82.020836"
       y="314.85416" /><rect
       style="fill:#ff6600;stroke-width:0.25299"
       id="rect10118"
       width="1.3229166"
       height="42.333344"
       x="101.86458"
       y="272.52084" /><rect
       style="fill:#ff6600;stroke-width:0.264583"
       id="rect10120"
       width="14.552083"
       height="1.3229166"
       x="62.177082"
       y="252.67708" /><rect
       style="fill:#ff6600;stroke-width:0.264583"
       id="rect10122"
       width="1.3229166"
       height="19.84375"
       x="75.40625"
       y="248.70833" /><rect
       style="fill:#ff6600;stroke-width:0.264583"
       id="rect10124"
       width="26.458332"
       height="1.3229166"
       x="75.40625"
       y="248.70833" /><rect
       style="fill:#ff6600;stroke-width:0.264583"
       id="rect10126"
       width="1.3229166"
       height="19.84375"
       x="100.54166"
       y="248.70833" /><rect
       style="fill:#ff6600;stroke-width:0.264583"
       id="rect10128"
       width="1.3229141"
       height="21.166656"
       x="83.34375"
       y="210.34375" /><rect
       style="fill:#ff6600;stroke-width:0.264583"
       id="rect10130"
       width="17.197916"
       height="1.3229166"
       x="83.34375"
       y="230.1875" /><rect
       style="fill:#ff6600;stroke-width:0.264583"
       id="rect10132"
       width="1.3229166"
       height="17.197916"
       x="84.666664"
       y="231.51041" /><rect
       style="fill:#ff6600;stroke-width:0.264583"
       id="rect10134"
       width="1.3229166"
       height="30.427082"
       x="99.21875"
       y="210.34375" /><rect
       style="fill:#ff6600;stroke-width:0.264583"
       id="rect10136"
       width="46.302082"
       height="1.3229166"
       x="100.54166"
       y="239.44791" /><rect
       style="fill:#ff6600;stroke-width:0.264583"
       id="rect10138"
       width="1.3229166"
       height="13.229166"
       x="111.125"
       y="240.77083" /><rect
       style="fill:#ff6600;stroke-width:0.264583"
       id="rect10140"
       width="43.65625"
       height="1.3229166"
       x="101.86458"
       y="254" /><rect
       style="fill:#ff6600;stroke-width:0.264583"
       id="rect10142"
       width="1.3229166"
       height="13.229166"
       x="128.32292"
       y="240.77083" /><rect
       style="fill:#ff6600;stroke-width:0.264583"
       id="rect10144"
       width="1.3229166"
       height="9.260417"
       x="111.125"
       y="230.1875" /><rect
       style="fill:#ff6600;stroke-width:0.264583"
       id="rect10146"
       width="3.96875"
       height="1.3229166"
       x="112.44791"
       y="230.1875" /><rect
       style="fill:#ff6600;stroke-width:0.264583"
       id="rect10148"
       width="1.3229166"
       height="21.166666"
       x="115.09375"
       y="210.34375" /><rect
       style="fill:#ff6600;stroke-width:0.264583"
       id="rect10150"
       width="15.875"
       height="1.3229166"
       x="115.09375"
       y="218.28125" /><rect
       style="fill:#ff6600;stroke-width:0.239324"
       id="rect10152"
       width="1.3229166"
       height="11.90624"
       x="129.64583"
       y="210.34375" /><rect
       style="fill:#ff6600;stroke-width:0.264583"
       id="rect10154"
       width="1.3229166"
       height="30.427082"
       x="130.96875"
       y="177.27083" /><path
       id="rect10156"
       style="fill:#ff6600;stroke-width:0.264583"
       d="M 149.48958 174.625 L 149.48958 175.94792 L 171.97917 175.94792 L 171.97917 207.69792 L 149.48958 207.69792 L 149.48958 209.02083 L 173.30208 209.02083 L 173.30208 207.69792 L 173.30208 174.625 L 149.48958 174.625 z " /><rect
       style="fill:#ff6600;stroke-width:0.262144"
       id="rect10162"
       width="141.55208"
       height="3.968745"
       x="3.96875"
       y="173.30208" /><path
       id="rect10164"
       style="fill:#ff6600;stroke-width:0.262405"
       d="M 3.96875 84.666667 L 3.96875 85.989583 L 63.5 85.989583 L 63.5 116.41667 L 3.96875 116.41667 L 3.96875 117.73958 L 63.5 117.73958 L 63.5 126.30599 L 63.5 144.19792 L 3.96875 144.19792 L 3.96875 145.52083 L 63.5 145.52083 L 63.5 145.82469 L 63.5 154.93318 L 63.5 156.23439 L 63.5 173.15015 L 64.822917 173.15015 L 64.822917 156.23439 L 64.822917 154.93318 L 64.822917 145.82469 L 64.822917 145.52083 L 64.822917 144.19792 L 64.822917 126.30599 L 64.822917 84.666667 L 63.5 84.666667 L 3.96875 84.666667 z " /><path
       id="rect10166"
       style="fill:#ff6600;stroke-width:0.264583"
       d="M 85.989583 54.239583 L 85.989583 80.697917 L 85.989583 127 L 85.989583 146.84375 L 85.989583 156.10417 L 85.989583 157.42708 L 85.989583 173.30208 L 87.3125 173.30208 L 87.3125 157.42708 L 87.3125 156.10417 L 87.3125 146.84375 L 87.3125 145.52083 L 145.52083 145.52083 L 145.52083 144.19792 L 87.3125 144.19792 L 87.3125 127 L 87.3125 117.73958 L 136.26042 117.73958 L 137.58333 117.73958 L 145.52083 117.73958 L 145.52083 116.41667 L 137.58333 116.41667 L 136.26042 116.41667 L 87.3125 116.41667 L 87.3125 84.666667 L 145.52083 84.666667 L 145.52083 83.34375 L 87.3125 83.34375 L 87.3125 76.729167 L 87.3125 54.239583 L 85.989583 54.239583 z " /><path
       id="rect10182"
       style="fill:#ff6600;stroke-width:0.264583"
       d="M 3.96875 50.270833 L 3.96875 54.239583 L 100.54167 54.239583 L 104.51042 54.239583 L 145.52083 54.239583 L 145.52083 51.59375 L 145.52083 50.270833 L 104.51042 50.270833 L 3.96875 50.270833 z " /><path
       id="rect10188"
       style="fill:#ff6600;stroke-width:0.25227"
       d="M 47.625 67.46875 L 47.625 84.666667 L 48.947917 84.666667 L 48.947917 68.791667 L 62.177083 68.791667 L 62.177083 67.46875 L 48.947917 67.46875 L 47.625 67.46875 z " /><path
       id="rect10194"
       style="fill:#ff6600;stroke-width:0.264583"
       d="M 62.177083 54.239583 L 62.177083 64.822917 L 62.177083 68.791667 L 62.177083 78.052083 L 63.5 78.052083 L 63.5 68.791667 L 63.5 64.822917 L 63.5 54.239583 L 62.177083 54.239583 z " /><rect
       style="fill:#ff6600;stroke-width:0.257128"
       id="rect10198"
       width="22.489584"
       height="1.3229166"
       x="63.5"
       y="74.083336" /><rect
       style="fill:#ff6600;stroke-width:0.264583"
       id="rect10202"
       width="3.96875"
       height="3.96875"
       x="37.041668"
       y="112.44791" /><rect
       style="fill:#ff6600;stroke-width:0.264583"
       id="rect10204"
       width="3.96875"
       height="3.96875"
       x="108.47916"
       y="112.44791" /><rect
       style="fill:#ff6600;stroke-width:0.260882"
       id="rect10212"
       width="1.3229166"
       height="46.302082"
       x="120.38541"
       y="3.96875" /><rect
       style="fill:#ff6600;stroke-width:0.260882"
       id="rect10214"
       width="1.3229166"
       height="46.302082"
       x="82.020836"
       y="3.96875" /><rect
       style="fill:#ff6600;stroke-width:0.257333"
       id="rect10216"
       width="1.3229166"
       height="46.302082"
       x="62.177082"
       y="3.96875" /><rect
       style="fill:#ff6600;stroke-width:0.264583"
       id="rect10218"
       width="1.3229166"
       height="29.104166"
       x="51.59375"
       y="177.27083" /><rect
       style="fill:#ff6600;stroke-width:0.264583"
       id="rect10355"
       width="82.020851"
       height="1.3229166"
       x="209.02083"
       y="35.71875" /><rect
       style="fill:#ff6600;stroke-width:0.264583"
       id="rect10357"
       width="1.3229166"
       height="31.75"
       x="250.03125"
       y="3.96875" /><rect
       style="fill:#ff6600;stroke-width:0.264583"
       id="rect10359"
       width="25.135416"
       height="1.3229166"
       x="209.02083"
       y="50.270832" /><rect
       style="fill:#ff6600;stroke-width:0.264583"
       id="rect10361"
       width="120.38543"
       height="3.9687512"
       x="231.51041"
       y="50.270832" /><rect
       style="fill:#ff6600;stroke-width:0.264583"
       id="rect10363"
       width="1.3229166"
       height="46.302082"
       x="289.71875"
       y="3.96875" /><rect
       style="fill:#ff6600;stroke-width:0.264583"
       id="rect10367"
       width="59.53125"
       height="1.3229166"
       x="291.04166"
       y="30.427082" /><rect
       style="fill:#ff6600;stroke-width:0.264583"
       id="rect11095"
       width="120.3854"
       height="3.96875"
       x="231.51042"
       y="111.125" /><rect
       style="fill:#ff6600;stroke-width:0.264583"
       id="rect11097"
       width="1.3229269"
       height="124.35417"
       x="231.51041"
       y="52.916664" /><rect
       style="fill:#ff6600;stroke-width:0.264583"
       id="rect11101"
       width="120.38543"
       height="3.968755"
       x="231.51041"
       y="173.30208" /><rect
       style="fill:#ff6600;stroke-width:0.264583"
       id="rect11103"
       width="120.38543"
       height="3.96875"
       x="231.51041"
       y="206.375" /><rect
       style="fill:#ff6600;stroke-width:0.264583"
       id="rect11105"
       width="1.3229166"
       height="29.104166"
       x="255.32291"
       y="177.27083" /><rect
       style="fill:#ff6600;stroke-width:0.264583"
       id="rect11107"
       width="1.3229166"
       height="59.53125"
       x="293.6875"
       y="115.09375" /><rect
       style="fill:#ff6600;stroke-width:0.264583"
       id="rect11109"
       width="14.552083"
       height="1.3229166"
       x="295.01041"
       y="144.19792" /><rect
       style="fill:#ff6600;stroke-width:0.264583"
       id="rect11111"
       width="1.3229166"
       height="34.395832"
       x="308.23959"
       y="138.90625" /><rect
       style="fill:#ff6600;stroke-width:0.264583"
       id="rect11113"
       width="22.489584"
       height="1.3229166"
       x="308.23959"
       y="138.90625" /><rect
       style="fill:#ff6600;stroke-width:0.264583"
       id="rect11115"
       width="21.166666"
       height="1.3229166"
       x="330.72916"
       y="144.19792" /><rect
       style="fill:#ff6600;stroke-width:0.264583"
       id="rect11117"
       width="1.3229166"
       height="6.614583"
       x="329.40625"
       y="138.90625" /><rect
       style="fill:#ff6600;stroke-width:0.264583"
       id="rect11119"
       width="42.333332"
       height="1.3229166"
       x="309.5625"
       y="157.42708" /><rect
       style="fill:#ff6600;stroke-width:0.264583"
       id="rect11121"
       width="1.3229166"
       height="14.552083"
       x="329.40625"
       y="158.75" /><rect
       style="fill:#ff6600;stroke-width:0.264583"
       id="rect11126"
       width="1.3229166"
       height="14.552083"
       x="339.98959"
       y="158.75" /><path
       id="rect11159"
       style="fill:#ff6600;stroke-width:0.264583"
       d="M 212.98958 456.40625 L 212.98958 488.15625 L 214.3125 488.15625 L 230.1875 488.15625 L 231.51042 488.15625 L 231.51042 470.95833 L 242.09375 470.95833 L 242.09375 469.63542 L 242.09375 456.40625 L 240.77083 456.40625 L 240.77083 469.63542 L 231.51042 469.63542 L 230.1875 469.63542 L 214.3125 469.63542 L 214.3125 456.40625 L 212.98958 456.40625 z M 214.3125 470.95833 L 230.1875 470.95833 L 230.1875 486.83333 L 214.3125 486.83333 L 214.3125 470.95833 z " /><rect
       style="fill:#ff6600;stroke-width:0.264583"
       id="rect11173"
       width="9.260417"
       height="2.6458333"
       x="232.83333"
       y="449.79166" /><rect
       style="fill:#ff6600;stroke-width:0.264583"
       id="rect11175"
       width="1.3229166"
       height="39.6875"
       x="235.47916"
       y="410.10416" /><rect
       style="fill:#ff6600;stroke-width:0.264583"
       id="rect11177"
       width="5.2916665"
       height="1.3229166"
       x="231.51041"
       y="410.10416" /><rect
       style="fill:#ff6600;stroke-width:0.263711"
       id="rect11179"
       width="1.3228964"
       height="199.76044"
       x="231.51042"
       y="210.34375" /><rect
       style="fill:#ff6600;stroke-width:0.264583"
       id="rect11181"
       width="1.3229166"
       height="56.885414"
       x="289.71875"
       y="210.34375" /><rect
       style="fill:#ff6600;stroke-width:0.264583"
       id="rect11183"
       width="1.3229166"
       height="6.614583"
       x="289.71875"
       y="263.26041" /><rect
       style="fill:#ff6600;stroke-width:0.264583"
       id="rect11185"
       width="119.06251"
       height="3.9687397"
       x="232.83333"
       y="268.55209" /><rect
       style="fill:#ff6600;stroke-width:0.264583"
       id="rect11187"
       width="120.38543"
       height="3.96875"
       x="231.51042"
       y="329.40625" /><rect
       style="fill:#ff6600;stroke-width:0.264583"
       id="rect11189"
       width="3.96875"
       height="7.9375"
       x="231.51041"
       y="328.08334" /><rect
       style="fill:#ff6600;stroke-width:0.264583"
       id="rect11191"
       width="119.06251"
       height="3.9687397"
       x="232.83333"
       y="391.58334" /></g></svg>
