<?xml version="1.0" encoding="UTF-8" standalone="no"?>
<!-- Created with Inkscape (http://www.inkscape.org/) -->

<svg
   width="50cm"
   height="50cm"
   viewBox="0 0 499.99998 500"
   version="1.1"
   id="svg5"
   xml:space="preserve"
   inkscape:export-filename="plan.svg"
   inkscape:export-xdpi="96"
   inkscape:export-ydpi="96"
   sodipodi:docname="plan_final.svg"
   inkscape:version="1.2.2 (732a01da63, 2022-12-09)"
   xmlns:inkscape="http://www.inkscape.org/namespaces/inkscape"
   xmlns:sodipodi="http://sodipodi.sourceforge.net/DTD/sodipodi-0.dtd"
   xmlns="http://www.w3.org/2000/svg"
   xmlns:svg="http://www.w3.org/2000/svg"><sodipodi:namedview
     id="namedview7"
     pagecolor="#505050"
     bordercolor="#eeeeee"
     borderopacity="1"
     inkscape:showpageshadow="0"
     inkscape:pageopacity="0"
     inkscape:pagecheckerboard="0"
     inkscape:deskcolor="#505050"
     inkscape:document-units="mm"
     showgrid="true"
     inkscape:zoom="0.45254834"
     inkscape:cx="636.3961"
     inkscape:cy="995.47377"
     inkscape:window-width="2560"
     inkscape:window-height="1351"
     inkscape:window-x="-9"
     inkscape:window-y="-9"
     inkscape:window-maximized="1"
     inkscape:current-layer="layer1"><inkscape:grid
       type="xygrid"
       id="grid1412"
       originx="0"
       originy="0" /></sodipodi:namedview><defs
     id="defs2" /><g
     inkscape:label="Calque 1"
     inkscape:groupmode="layer"
     id="layer1"><path
       id="rect6391"
       style="fill:#ff6600;stroke-width:0.264583"
       d="m 0,0 v 3.96875 448.46875 3.96875 H 3.96875 149.48958 V 452.4375 3.96875 0 H 3.96875 Z M 3.96875,3.96875 H 145.52083 V 452.4375 H 3.96875 Z" /><path
       id="rect6391-6"
       style="fill:#ff6600;stroke-width:0.264583"
       d="m 205.05208,0 v 3.96875 448.46875 3.96875 h 3.96875 141.55209 3.96875 V 452.4375 0 H 209.02083 Z m 3.96875,3.96875 H 350.57292 V 452.4375 H 209.02083 Z" /><path
       id="rect10064"
       style="fill:#ff6600;stroke-width:0.264583"
       d="m 7.9375,469.63542 v 1.32291 17.19792 1.32292 h 18.520833 v -1.32292 -18.52083 H 9.2604167 Z m 1.3229167,1.32291 H 25.135417 v 17.19792 H 9.2604167 Z" /><rect
       style="fill:#ff6600;stroke-width:0.13322"
       id="rect10100"
       width="23.8125"
       height="1.3229166"
       x="3.96875"
       y="206.375" /><rect
       style="fill:#ff6600;stroke-width:0.187088"
       id="rect10102"
       width="5.2916665"
       height="2.645823"
       x="27.78125"
       y="210.34375" /><path
       id="rect10104"
       style="fill:#ff6600;stroke-width:0.336514"
       d="m 27.78125,206.375 v 3.96875 h 66.145833 6.614587 30.42708 V 206.375 h -30.42708 -6.614587 z" /><rect
       style="fill:#ff6600;stroke-width:0.264583"
       id="rect10154"
       width="1.3229166"
       height="30.427082"
       x="130.96875"
       y="177.27083" /><path
       id="rect10156"
       style="fill:#ff6600;stroke-width:0.264583"
       d="m 149.48958,174.625 v 1.32292 h 22.48959 v 31.75 h -22.48959 v 1.32291 h 23.8125 V 207.69792 174.625 Z" /><rect
       style="fill:#ff6600;stroke-width:0.262144"
       id="rect10162"
       width="141.55208"
       height="3.968745"
       x="3.96875"
       y="173.30208" /><path
       id="rect10164"
       style="fill:#ff6600;stroke-width:0.262405"
       d="m 3.96875,84.666667 v 1.322916 H 63.5 V 116.41667 H 3.96875 v 1.32291 H 63.5 v 8.56641 17.89193 H 3.96875 v 1.32291 H 63.5 v 0.30386 9.10849 1.30121 16.91576 h 1.322917 v -16.91576 -1.30121 -9.10849 -0.30386 -1.32291 -17.89193 -41.639323 H 63.5 Z" /><path
       id="rect10166"
       style="fill:#ff6600;stroke-width:0.264583"
       d="M 85.989583,54.239583 V 80.697917 127 v 19.84375 9.26042 1.32291 15.875 H 87.3125 v -15.875 -1.32291 -9.26042 -1.32292 h 58.20833 v -1.32291 H 87.3125 V 127 117.73958 h 48.94792 1.32291 7.9375 v -1.32291 h -7.9375 -1.32291 H 87.3125 V 84.666667 h 58.20833 V 83.34375 H 87.3125 V 76.729167 54.239583 Z" /><path
       id="rect10182"
       style="fill:#ff6600;stroke-width:0.264583"
       d="m 3.96875,50.270833 v 3.96875 h 96.57292 3.96875 41.01041 V 51.59375 50.270833 h -41.01041 z" /><path
       id="rect10188"
       style="fill:#ff6600;stroke-width:0.25227"
       d="m 47.625,67.46875 v 17.197917 h 1.322917 v -15.875 H 62.177083 V 67.46875 H 48.947917 Z" /><path
       id="rect10194"
       style="fill:#ff6600;stroke-width:0.264583"
       d="m 62.177083,54.239583 v 10.583334 3.96875 9.260416 H 63.5 v -9.260416 -3.96875 -10.583334 z" /><rect
       style="fill:#ff6600;stroke-width:0.257128"
       id="rect10198"
       width="22.489584"
       height="1.3229166"
       x="63.5"
       y="74.083336" /><rect
       style="fill:#ff6600;stroke-width:0.264583"
       id="rect10202"
       width="3.96875"
       height="3.96875"
       x="37.041668"
       y="112.44791" /><rect
       style="fill:#ff6600;stroke-width:0.264583"
       id="rect10204"
       width="3.96875"
       height="3.96875"
       x="108.47916"
       y="112.44791" /><rect
       style="fill:#ff6600;stroke-width:0.260882"
       id="rect10212"
       width="1.3229166"
       height="46.302082"
       x="120.38541"
       y="3.96875" /><rect
       style="fill:#ff6600;stroke-width:0.260882"
       id="rect10214"
       width="1.3229166"
       height="46.302082"
       x="82.020836"
       y="3.96875" /><rect
       style="fill:#ff6600;stroke-width:0.257333"
       id="rect10216"
       width="1.3229166"
       height="46.302082"
       x="62.177082"
       y="3.96875" /><rect
       style="fill:#ff6600;stroke-width:0.264583"
       id="rect10218"
       width="1.3229166"
       height="29.104166"
       x="51.59375"
       y="177.27083" /><rect
       style="fill:#ff6600;stroke-width:0.262441"
       id="rect10355"
       width="80.697914"
       height="1.3229166"
       x="209.02083"
       y="35.71875" /><rect
       style="fill:#ff6600;stroke-width:0.25027"
       id="rect10359"
       width="22.489588"
       height="1.3229166"
       x="209.02083"
       y="50.270832" /><rect
       style="fill:#ff6600;stroke-width:0.264583"
       id="rect10361"
       width="120.38543"
       height="3.9687512"
       x="231.51041"
       y="50.270832" /><rect
       style="fill:#ff6600;stroke-width:0.264583"
       id="rect10363"
       width="1.3229166"
       height="46.302082"
       x="289.71875"
       y="3.96875" /><rect
       style="fill:#ff6600;stroke-width:0.264583"
       id="rect10367"
       width="59.53125"
       height="1.3229166"
       x="291.04166"
       y="30.427082" /><rect
       style="fill:#ff6600;stroke-width:0.261659"
       id="rect11095"
       width="117.73959"
       height="3.96875"
       x="232.83333"
       y="111.125" /><rect
       style="fill:#ff6600;stroke-width:0.258892"
       id="rect11097"
       width="1.3229269"
       height="119.0625"
       x="231.51041"
       y="54.239582" /><rect
       style="fill:#ff6600;stroke-width:0.263125"
       id="rect11101"
       width="119.06252"
       height="3.968755"
       x="231.51041"
       y="173.30208" /><rect
       style="fill:#ff6600;stroke-width:0.286713"
       id="rect11103"
       width="141.55209"
       height="3.963541"
       x="209.02083"
       y="206.37761" /><rect
       style="fill:#ff6600;stroke-width:0.264583"
       id="rect11105"
       width="1.3229166"
       height="29.104166"
       x="255.32291"
       y="177.27083" /><rect
       style="fill:#ff6600;stroke-width:0.261627"
       id="rect11107"
       width="1.3229166"
       height="58.208332"
       x="293.6875"
       y="115.09375" /><path
       id="rect11159"
       style="fill:#ff6600;stroke-width:0.264583"
       d="m 212.98958,456.40625 v 31.75 h 1.32292 15.875 1.32292 v -17.19792 h 10.58333 v -1.32291 -13.22917 h -1.32292 v 13.22917 h -9.26041 -1.32292 -15.875 v -13.22917 z m 1.32292,14.55208 h 15.875 v 15.875 h -15.875 z" /></g></svg>
